<svg width="22" height="24" viewBox="0 0 22 24" fill="none" xmlns="http://www.w3.org/2000/svg">
<path d="M10.6001 24C11.3957 24 12.1588 23.6839 12.7214 23.1213C13.284 22.5587 13.6001 21.7956 13.6001 21H7.6001C7.6001 21.7956 7.91617 22.5587 8.47878 23.1213C9.04139 23.6839 9.80445 24 10.6001 24ZM12.0926 1.64847C12.1135 1.4399 12.0905 1.22926 12.025 1.03013C11.9596 0.831 11.8531 0.647804 11.7125 0.492357C11.5718 0.336909 11.4002 0.212661 11.2086 0.127626C11.017 0.0425914 10.8097 -0.00134277 10.6001 -0.00134277C10.3905 -0.00134277 10.1832 0.0425914 9.9916 0.127626C9.8 0.212661 9.62836 0.336909 9.48773 0.492357C9.34711 0.647804 9.24062 0.831 9.17515 1.03013C9.10967 1.22926 9.08666 1.4399 9.1076 1.64847C7.41218 1.99332 5.88803 2.91351 4.79324 4.25322C3.69846 5.59293 3.10032 7.26983 3.1001 8.99997C3.1001 10.647 2.3501 18 0.100098 19.5H21.1001C18.8501 18 18.1001 10.647 18.1001 8.99997C18.1001 5.36997 15.5201 2.33997 12.0926 1.64847Z" fill="#232323"/>
</svg>
