<svg width="25" height="18" viewBox="0 0 25 18" fill="none" xmlns="http://www.w3.org/2000/svg">
<path d="M0.675098 2.3325C0.826325 1.66986 1.19808 1.07822 1.72948 0.654463C2.26088 0.230706 2.92042 -4.57416e-05 3.6001 6.80121e-09H21.6001C22.2798 -4.57416e-05 22.9393 0.230706 23.4707 0.654463C24.0021 1.07822 24.3739 1.66986 24.5251 2.3325L12.6001 9.621L0.675098 2.3325ZM0.600098 4.0455V14.7015L9.3046 9.3645L0.600098 4.0455ZM10.7416 10.245L0.886598 16.2855C1.13009 16.7989 1.51439 17.2326 1.99477 17.5362C2.47515 17.8397 3.03186 18.0005 3.6001 18H21.6001C22.1682 18.0001 22.7247 17.8389 23.2048 17.5351C23.685 17.2313 24.0689 16.7975 24.3121 16.284L14.4571 10.2435L12.6001 11.379L10.7416 10.245ZM15.8956 9.366L24.6001 14.7015V4.0455L15.8956 9.3645V9.366Z" fill="#232323"/>
</svg>
